<svg xmlns="http://www.w3.org/2000/svg">
   <symbol id="vk" viewBox="0 0 31 32">
      <g>
         <path d="M5.74998 0.645752C4.22681 0.651687 2.76773 1.25939 1.69069 2.33644C0.613641 3.41348 0.00593543 4.87257 0 6.39573V25.8854C0.00593543 27.4085 0.613641 28.8676 1.69069 29.9447C2.76773 31.0217 4.22681 31.6294 5.74998 31.6353H25.2396C26.7628 31.6294 28.2219 31.0217 29.2989 29.9447C30.3759 28.8676 30.9837 27.4085 30.9896 25.8854V6.39573C30.9837 4.87257 30.3759 3.41348 29.2989 2.33644C28.2219 1.25939 26.7628 0.651687 25.2396 0.645752H5.74998ZM5.74998 3.46299H25.2396C26.8736 3.46299 28.1723 4.76173 28.1723 6.39573V25.8854C28.1723 27.5194 26.8736 28.8181 25.2396 28.8181H5.74998C5.36416 28.8205 4.98171 28.7463 4.62479 28.5998C4.26788 28.4533 3.94361 28.2374 3.67079 27.9645C3.39798 27.6917 3.18205 27.3675 3.03552 27.0105C2.889 26.6536 2.8148 26.2712 2.81723 25.8854V6.39573C2.81723 4.76173 4.11598 3.46299 5.74998 3.46299ZM15.099 10.8301C14.0636 10.8202 13.1833 10.8301 12.6888 11.0723C12.3578 11.2329 12.1057 11.5949 12.2592 11.6118C12.4522 11.64 12.886 11.733 13.1185 12.0471C13.4143 12.4486 13.4044 13.3571 13.4044 13.3571C13.4044 13.3571 13.5692 15.8546 13.0015 16.1687C12.6114 16.3828 12.0775 15.9476 10.9224 13.9614C10.3336 12.9388 9.8885 11.8105 9.8885 11.8105C9.8885 11.8105 9.80398 11.6006 9.65185 11.4907C9.4645 11.3541 9.20532 11.309 9.20532 11.309L6.44865 11.3259C6.44865 11.3259 6.03593 11.3428 5.88802 11.5189C5.74998 11.6837 5.87675 12.0077 5.87675 12.0077C5.87675 12.0077 8.03335 17.0533 10.4759 19.5959C12.7156 21.93 15.2581 21.775 15.2581 21.775H16.4132C16.4132 21.775 16.7597 21.737 16.9358 21.5496C17.102 21.3736 17.0964 21.0425 17.0964 21.0425C17.0964 21.0425 17.0739 19.4973 17.7894 19.2663C18.4994 19.0451 19.4009 20.7622 20.3644 21.4229C21.0969 21.9229 21.6519 21.813 21.6519 21.813L24.2282 21.775C24.2282 21.775 25.5706 21.6919 24.9325 20.6298C24.8832 20.5481 24.5635 19.8494 23.0239 18.4183C21.4053 16.9223 21.6209 17.1646 23.5676 14.5728C24.7508 12.9937 25.2241 12.0302 25.0748 11.6118C24.9339 11.2217 24.0634 11.3259 24.0634 11.3259L21.1631 11.3428C21.1631 11.3428 20.949 11.3146 20.7898 11.409C20.6803 11.4903 20.5931 11.5978 20.5362 11.7217C20.5362 11.7217 20.0742 12.943 19.4629 13.984C18.1754 16.1729 17.6528 16.2941 17.4443 16.1574C16.9541 15.8377 17.0753 14.8798 17.0753 14.2037C17.0753 12.0739 17.3992 11.1935 16.4484 10.9639C16.1343 10.8864 15.9033 10.8371 15.1004 10.8301H15.099Z" />      
      </g>
   </symbol>
   <symbol id="instagram" viewBox="0 0 33 33">
      <g>
         <path d="M24.5853 5.70907C24.2067 5.70907 23.8367 5.82132 23.5219 6.03164C23.2071 6.24196 22.9618 6.5409 22.8169 6.89065C22.6721 7.2404 22.6341 7.62525 22.708 7.99654C22.7819 8.36784 22.9642 8.70889 23.2318 8.97658C23.4995 9.24426 23.8406 9.42656 24.2119 9.50041C24.5832 9.57427 24.968 9.53636 25.3178 9.39149C25.6675 9.24662 25.9665 9.00129 26.1768 8.68653C26.3871 8.37176 26.4994 8.00169 26.4994 7.62313C26.4994 7.11549 26.2977 6.62864 25.9387 6.26968C25.5798 5.91073 25.0929 5.70907 24.5853 5.70907ZM31.9225 9.56909C31.8915 8.24568 31.6436 6.9363 31.1888 5.69312C30.7832 4.62943 30.152 3.66625 29.3385 2.86987C28.5487 2.05229 27.5833 1.42504 26.5153 1.03556C25.2754 0.566874 23.9646 0.31334 22.6393 0.285889C20.9486 0.190185 20.4062 0.190186 16.0677 0.190186C11.7292 0.190186 11.1868 0.190185 9.49609 0.285889C8.17085 0.31334 6.86002 0.566874 5.62012 1.03556C4.55411 1.42898 3.58951 2.0557 2.79688 2.86987C1.97929 3.65971 1.35204 4.62513 0.962565 5.69312C0.493876 6.93302 0.240341 8.24385 0.212891 9.56909C0.117187 11.2598 0.117188 11.8022 0.117188 16.1407C0.117188 20.4792 0.117187 21.0216 0.212891 22.7123C0.240341 24.0376 0.493876 25.3484 0.962565 26.5883C1.35204 27.6563 1.97929 28.6217 2.79688 29.4115C3.58951 30.2257 4.55411 30.8524 5.62012 31.2459C6.86002 31.7145 8.17085 31.9681 9.49609 31.9955C11.1868 32.0912 11.7292 32.0912 16.0677 32.0912C20.4062 32.0912 20.9486 32.0912 22.6393 31.9955C23.9646 31.9681 25.2754 31.7145 26.5153 31.2459C27.5833 30.8564 28.5487 30.2291 29.3385 29.4115C30.1556 28.6181 30.7874 27.6541 31.1888 26.5883C31.6436 25.3451 31.8915 24.0357 31.9225 22.7123C31.9225 21.0216 32.0182 20.4792 32.0182 16.1407C32.0182 11.8022 32.0182 11.2598 31.9225 9.56909ZM29.0514 22.5209C29.0398 23.5334 28.8564 24.5366 28.5091 25.4877C28.2544 26.1819 27.8454 26.8091 27.3128 27.322C26.7955 27.8492 26.1695 28.2574 25.4785 28.5183C24.5274 28.8656 23.5242 29.049 22.5117 29.0606C20.9167 29.1404 20.3265 29.1563 16.1315 29.1563C11.9365 29.1563 11.3464 29.1563 9.7513 29.0606C8.69999 29.0803 7.65316 28.9184 6.6569 28.5821C5.9962 28.3079 5.39897 27.9007 4.90234 27.3858C4.37293 26.8734 3.96899 26.2457 3.72201 25.5515C3.33258 24.5868 3.11659 23.5608 3.08398 22.5209C3.08398 20.9259 2.98828 20.3357 2.98828 16.1407C2.98828 11.9457 2.98828 11.3556 3.08398 9.7605C3.09113 8.7254 3.2801 7.6996 3.64225 6.7299C3.92306 6.05665 4.35407 5.4565 4.90234 4.97534C5.38694 4.42691 5.98584 3.99135 6.6569 3.6993C7.62917 3.34846 8.6539 3.16508 9.6875 3.15698C11.2826 3.15698 11.8727 3.06128 16.0677 3.06128C20.2627 3.06128 20.8529 3.06128 22.4479 3.15698C23.4604 3.1686 24.4636 3.35197 25.4147 3.6993C26.1396 3.96831 26.7901 4.40566 27.3128 4.97534C27.8355 5.46531 28.244 6.06434 28.5091 6.7299C28.8636 7.70118 29.0471 8.72655 29.0514 9.7605C29.1312 11.3556 29.1471 11.9457 29.1471 16.1407C29.1471 20.3357 29.1312 20.9259 29.0514 22.5209ZM16.0677 7.95809C14.45 7.96124 12.8696 8.44382 11.526 9.34486C10.1825 10.2459 9.13622 11.5249 8.51934 13.0204C7.90246 14.5158 7.74269 16.1606 8.06022 17.7468C8.37775 19.333 9.15832 20.7895 10.3033 21.9323C11.4483 23.0751 12.9063 23.8528 14.4932 24.1672C16.08 24.4817 17.7244 24.3187 19.2187 23.6989C20.7129 23.0791 21.9899 22.0303 22.8884 20.6851C23.7868 19.3398 24.2663 17.7584 24.2663 16.1407C24.2684 15.0642 24.0576 13.9979 23.6462 13.0032C23.2347 12.0084 22.6306 11.1048 21.8687 10.3444C21.1068 9.58391 20.202 8.9816 19.2064 8.57207C18.2109 8.16254 17.1442 7.95388 16.0677 7.95809ZM16.0677 21.4522C15.0172 21.4522 13.9903 21.1407 13.1168 20.5571C12.2433 19.9734 11.5625 19.1439 11.1605 18.1733C10.7585 17.2028 10.6533 16.1348 10.8582 15.1045C11.0632 14.0741 11.5691 13.1277 12.3119 12.3849C13.0547 11.6421 14.0011 11.1362 15.0315 10.9312C16.0618 10.7263 17.1298 10.8315 18.1003 11.2335C19.0709 11.6355 19.9004 12.3163 20.4841 13.1898C21.0677 14.0633 21.3792 15.0902 21.3792 16.1407C21.3792 16.8382 21.2418 17.5289 20.9749 18.1733C20.708 18.8178 20.3167 19.4033 19.8235 19.8965C19.3303 20.3897 18.7448 20.781 18.1003 21.0479C17.4559 21.3148 16.7652 21.4522 16.0677 21.4522Z" />      
      </g>
   </symbol>  
   <symbol id="facebook" viewBox="0 0 39 39">
      <g>
         <path d="M17.382 14.2549V16.4513H15.7742V19.1358H17.382V27.1158H20.687V19.1358H22.9041C22.9041 19.1358 23.1131 17.8486 23.2136 16.4401H20.6997V14.6058C20.6997 14.3299 21.0602 13.9614 21.4175 13.9614H23.2167V11.1653H20.7683C17.3007 11.1653 17.382 13.8529 17.382 14.2549Z" />
         <path d="M9.89327 6.38029C9.0472 6.38029 8.23579 6.71639 7.63753 7.31465C7.03927 7.91291 6.70317 8.72433 6.70317 9.57039V28.711C6.70317 29.5571 7.03927 30.3685 7.63753 30.9668C8.23579 31.565 9.0472 31.9011 9.89327 31.9011H29.0339C29.88 31.9011 30.6914 31.565 31.2896 30.9668C31.8879 30.3685 32.224 29.5571 32.224 28.711V9.57039C32.224 8.72433 31.8879 7.91291 31.2896 7.31465C30.6914 6.71639 29.88 6.38029 29.0339 6.38029H9.89327ZM9.89327 3.19019H29.0339C30.726 3.19019 32.3489 3.86238 33.5454 5.05891C34.7419 6.25543 35.4141 7.87826 35.4141 9.57039V28.711C35.4141 30.4032 34.7419 32.026 33.5454 33.2225C32.3489 34.419 30.726 35.0912 29.0339 35.0912H9.89327C8.20113 35.0912 6.5783 34.419 5.38178 33.2225C4.18526 32.026 3.51306 30.4032 3.51306 28.711V9.57039C3.51306 7.87826 4.18526 6.25543 5.38178 5.05891C6.5783 3.86238 8.20113 3.19019 9.89327 3.19019Z"/>      
      </g>
   </symbol>  
   <symbol id="odnoklasniki" viewBox="0 0 39 39">
      <g>
         <path d="M19.1097 22.3243C17.8815 22.1951 16.7761 21.8905 15.8287 21.144C15.7106 21.0515 15.5894 20.9621 15.4825 20.8569C15.0678 20.4581 15.0248 19.9971 15.3549 19.525C15.6341 19.1198 16.1046 19.0114 16.5959 19.2427C16.6906 19.2893 16.7813 19.3437 16.867 19.4054C18.6328 20.6272 21.0588 20.6607 22.8325 19.4596C23.0031 19.3204 23.2 19.2174 23.4115 19.1565C23.6077 19.0991 23.8174 19.1094 24.007 19.1858C24.1965 19.2622 24.3548 19.4002 24.4563 19.5776C24.7163 20.0035 24.7115 20.4182 24.3925 20.7484C23.9033 21.2461 23.3116 21.6314 22.6587 21.8777C22.0398 22.1201 21.3603 22.2414 20.6888 22.3227C20.7909 22.4344 20.8387 22.4886 20.9025 22.5524C21.8133 23.4743 22.7289 24.3931 23.638 25.3182C23.9475 25.634 24.0129 26.0248 23.8422 26.3917C23.6556 26.7905 23.2377 27.0552 22.8294 27.0265C22.5815 27.0016 22.3524 26.8836 22.1881 26.6963C21.5007 25.9993 20.8004 25.315 20.1257 24.6052C19.9295 24.3979 19.8338 24.4378 19.6616 24.6164C18.9693 25.3342 18.2659 26.0408 17.5577 26.7442C17.2403 27.0584 16.8623 27.1158 16.4938 26.9356C16.3051 26.8466 16.146 26.7051 16.0356 26.528C15.9253 26.3509 15.8684 26.1457 15.8717 25.9371C15.8924 25.6788 16.0125 25.4387 16.2067 25.2672L18.9087 22.5412C18.9677 22.4806 19.0236 22.4168 19.1097 22.3243Z" />
         <path d="M19.8403 19.1406C18.7867 19.1313 17.7795 18.7059 17.0382 17.9572C16.2969 17.2084 15.8816 16.197 15.8829 15.1434C15.888 14.0852 16.3125 13.0722 17.0633 12.3265C17.8141 11.5807 18.8299 11.1632 19.8881 11.1653C20.4144 11.1682 20.935 11.2752 21.4198 11.48C21.9047 11.6848 22.3442 11.9835 22.7132 12.3589C23.0822 12.7342 23.3733 13.1788 23.5698 13.6671C23.7663 14.1554 23.8643 14.6777 23.8582 15.204C23.847 17.3828 22.0446 19.1485 19.8403 19.1406ZM21.8245 15.1497C21.8251 14.8934 21.775 14.6395 21.6771 14.4026C21.5791 14.1657 21.4353 13.9505 21.2538 13.7695C21.0723 13.5885 20.8568 13.4451 20.6197 13.3478C20.3826 13.2504 20.1285 13.2009 19.8722 13.2022C19.6138 13.2009 19.3577 13.2511 19.119 13.3498C18.8802 13.4485 18.6635 13.5938 18.4814 13.7771C18.2994 13.9605 18.1557 14.1783 18.0587 14.4178C17.9618 14.6573 17.9134 14.9137 17.9166 15.1721C17.9179 15.4284 17.9698 15.682 18.0695 15.9182C18.1692 16.1543 18.3147 16.3684 18.4975 16.5481C18.6803 16.7278 18.8969 16.8696 19.1347 16.9652C19.3726 17.0608 19.627 17.1084 19.8833 17.1053C20.1395 17.1055 20.3932 17.0549 20.6298 16.9566C20.8663 16.8582 21.081 16.7139 21.2615 16.5321C21.442 16.3503 21.5847 16.1345 21.6813 15.8972C21.7779 15.66 21.8266 15.4059 21.8245 15.1497Z" />
         <path d="M10.2891 6.38029C9.44302 6.38029 8.6316 6.71639 8.03334 7.31465C7.43508 7.91291 7.09898 8.72433 7.09898 9.57039V28.711C7.09898 29.5571 7.43508 30.3685 8.03334 30.9668C8.6316 31.565 9.44302 31.9011 10.2891 31.9011H29.4297C30.2758 31.9011 31.0872 31.565 31.6855 30.9668C32.2837 30.3685 32.6198 29.5571 32.6198 28.711V9.57039C32.6198 8.72433 32.2837 7.91291 31.6855 7.31465C31.0872 6.71639 30.2758 6.38029 29.4297 6.38029H10.2891ZM10.2891 3.19019H29.4297C31.1218 3.19019 32.7447 3.86238 33.9412 5.05891C35.1377 6.25543 35.8099 7.87826 35.8099 9.57039V28.711C35.8099 30.4032 35.1377 32.026 33.9412 33.2225C32.7447 34.419 31.1218 35.0912 29.4297 35.0912H10.2891C8.59695 35.0912 6.97412 34.419 5.77759 33.2225C4.58107 32.026 3.90887 30.4032 3.90887 28.711V9.57039C3.90887 7.87826 4.58107 6.25543 5.77759 5.05891C6.97412 3.86238 8.59695 3.19019 10.2891 3.19019Z" >      
      </g>
   </symbol>
</svg>






