<svg width="1624" height="1326" viewBox="0 0 1624 1326" fill="none" xmlns="http://www.w3.org/2000/svg">
<path d="M437 597.5C607 476.7 688.167 314.5 707.5 248.5L895.5 165.5C1010.17 180.167 1244.4 217.3 1264 248.5C1288.5 287.5 1230 377.5 1159 385C1088 392.5 912.5 597.5 854 661C795.5 724.5 788 1039 637 1083C486 1127 307.5 1063.5 271 968.5C234.5 873.5 224.5 748.5 437 597.5Z" fill="#FF7200" fill-opacity="0.27"/>
<path d="M297.15 614.797C568.042 442.882 697.379 212.048 728.186 118.121L1027.76 0C1210.48 20.8727 1583.72 73.7187 1614.96 118.121C1654 173.623 1560.78 301.706 1447.64 312.38C1334.5 323.053 1054.85 614.797 961.631 705.167C868.412 795.536 856.461 1243.11 615.846 1305.73C375.231 1368.35 90.7949 1277.98 32.6329 1142.78C-25.529 1007.58 -41.4638 829.692 297.15 614.797Z" fill="#FF7200" fill-opacity="0.27"/>
</svg>
